<svg width="128" height="128" viewBox="0 0 128 128" fill="none" xmlns="http://www.w3.org/2000/svg">
<path d="M69.344 37.3813C86.24 37.3813 95.8293 48.5653 97.2213 62.0747H97.648C100.231 62.0712 102.789 62.5765 105.176 63.5618C107.564 64.5471 109.734 65.9931 111.562 67.8171C113.391 69.6412 114.842 71.8076 115.833 74.1926C116.824 76.5777 117.336 79.1346 117.339 81.7173C117.335 84.2996 116.823 86.856 115.832 89.2404C114.84 91.6248 113.389 93.7906 111.56 95.6141C109.732 97.4376 107.562 98.8831 105.175 99.868C102.788 100.853 100.23 101.358 97.648 101.355H41.0346C38.4523 101.358 35.8946 100.853 33.5075 99.868C31.1204 98.8831 28.9507 97.4376 27.1223 95.6141C25.2938 93.7906 23.8425 91.6248 22.851 89.2404C21.8596 86.856 21.3475 84.2996 21.344 81.7173C21.3468 79.1346 21.8583 76.5777 22.8495 74.1926C23.8406 71.8076 25.2919 69.6412 27.1204 67.8171C28.9489 65.9931 31.1189 64.5471 33.5063 63.5618C35.8937 62.5765 38.4519 62.0712 41.0346 62.0747H41.4613C42.864 48.4747 52.448 37.3813 69.344 37.3813V37.3813ZM53.3333 21.3333C61.9573 21.3333 69.6 25.68 74.1333 32.3307C72.544 32.1407 70.9446 32.0463 69.344 32.048C53.376 32.048 41.7653 40.992 37.68 54.5173L37.3173 55.7973L37.008 57.0667L35.9093 57.2747C31.7044 58.1688 27.8017 60.1336 24.5791 62.9788C21.3564 65.8239 18.9231 69.4531 17.5146 73.5147C14.6793 71.34 12.5774 68.3497 11.4913 64.9455C10.4053 61.5413 10.3871 57.8862 11.4393 54.4713C12.4914 51.0565 14.5635 48.0454 17.3771 45.8427C20.1907 43.64 23.6111 42.3511 27.1786 42.1493L28.5493 42.1173C29.5806 36.2934 32.6296 31.0186 37.1615 27.2181C41.6934 23.4176 47.4188 21.3342 53.3333 21.3333V21.3333Z" fill="#666666"/>
</svg>
