<svg width="128" height="128" viewBox="0 0 128 128" fill="none" xmlns="http://www.w3.org/2000/svg">
<path d="M64 19.2C79.776 19.2 88.7232 29.2736 90.0224 41.4336H90.4192C100.57 41.4336 108.8 49.3504 108.8 59.1168C108.8 68.8832 100.57 76.8 90.4192 76.8L85.92 76.7936V76.8H85.728L79.6032 87.9424C79.186 88.6704 78.4996 89.2055 77.6917 89.4323C76.8839 89.6591 76.0193 89.5596 75.2841 89.1551C74.549 88.7506 74.0021 88.0735 73.7613 87.2697C73.5205 86.4659 73.6051 85.5996 73.9968 84.8576L78.432 76.7936H66.7968V76.8H66.5344L60.4032 87.9424C59.986 88.6704 59.2996 89.2055 58.4917 89.4323C57.6839 89.6591 56.8193 89.5596 56.0841 89.1551C55.349 88.7506 54.8021 88.0735 54.5613 87.2697C54.3205 86.4659 54.4051 85.5996 54.7968 84.8576L59.232 76.8H47.5648H47.3344L41.2032 87.9424C40.786 88.6704 40.0996 89.2055 39.2917 89.4323C38.4839 89.6591 37.6193 89.5596 36.8841 89.1551C36.149 88.7506 35.6021 88.0735 35.3613 87.2697C35.1205 86.4659 35.2051 85.5996 35.5968 84.8576L40.032 76.8H37.5808C27.4304 76.8 19.2 68.8832 19.2 59.1168C19.2 49.7088 26.8288 42.0224 36.4608 41.4656L37.9776 41.4336C39.2896 29.1904 48.224 19.2 64 19.2Z" fill="#505BC0"/>
<path d="M49.5872 91.6224C50.3237 92.0435 50.8628 92.7399 51.086 93.5584C51.3093 94.3768 51.1983 95.2505 50.7776 95.9872L44.3776 107.187C43.946 107.903 43.2517 108.421 42.443 108.631C41.6343 108.842 40.7754 108.727 40.0499 108.313C39.3245 107.898 38.7899 107.216 38.5605 106.413C38.3311 105.609 38.4251 104.748 38.8224 104.013L45.2224 92.8128C45.6435 92.0763 46.3399 91.5372 47.1584 91.314C47.9769 91.0907 48.8505 91.2017 49.5872 91.6224V91.6224Z" fill="#505BC0"/>
<path d="M69.9776 95.9872C70.3749 95.2521 70.4689 94.3908 70.2395 93.5873C70.0102 92.7838 69.4756 92.1019 68.7501 91.6874C68.0246 91.2728 67.1658 91.1585 66.3571 91.3688C65.5484 91.5791 64.8541 92.0973 64.4224 92.8128L58.0224 104.013C57.6252 104.748 57.5312 105.609 57.7605 106.413C57.9899 107.216 58.5245 107.898 59.25 108.313C59.9755 108.727 60.8343 108.842 61.643 108.631C62.4517 108.421 63.146 107.903 63.5776 107.187L69.9776 95.9872V95.9872Z" fill="#505BC0"/>
</svg>
