<svg width="128" height="128" viewBox="0 0 128 128" fill="none" xmlns="http://www.w3.org/2000/svg">
<path d="M64 8C65.0609 8 66.0783 8.42143 66.8284 9.17157C67.5786 9.92172 68 10.9391 68 12V20C68 21.0609 67.5786 22.0783 66.8284 22.8284C66.0783 23.5786 65.0609 24 64 24C62.9391 24 61.9217 23.5786 61.1716 22.8284C60.4214 22.0783 60 21.0609 60 20V12C60 10.9391 60.4214 9.92172 61.1716 9.17157C61.9217 8.42143 62.9391 8 64 8V8ZM24.4 24.4C25.1501 23.6501 26.1673 23.2289 27.228 23.2289C28.2887 23.2289 29.3059 23.6501 30.056 24.4L35.712 30.056C36.4406 30.8104 36.8438 31.8208 36.8347 32.8696C36.8256 33.9184 36.4049 34.9216 35.6633 35.6633C34.9216 36.4049 33.9184 36.8256 32.8696 36.8347C31.8208 36.8438 30.8104 36.4406 30.056 35.712L24.4 30.056C23.6501 29.3059 23.2289 28.2887 23.2289 27.228C23.2289 26.1673 23.6501 25.1501 24.4 24.4V24.4ZM103.6 24.4C104.35 25.1501 104.771 26.1673 104.771 27.228C104.771 28.2887 104.35 29.3059 103.6 30.056L97.944 35.712C97.575 36.094 97.1336 36.3988 96.6456 36.6084C96.1576 36.818 95.6327 36.9284 95.1016 36.933C94.5705 36.9376 94.0438 36.8364 93.5522 36.6353C93.0606 36.4342 92.614 36.1372 92.2384 35.7616C91.8628 35.386 91.5658 34.9394 91.3647 34.4478C91.1636 33.9562 91.0624 33.4295 91.067 32.8984C91.0716 32.3673 91.182 31.8424 91.3916 31.3544C91.6012 30.8664 91.906 30.425 92.288 30.056L97.944 24.4C98.6941 23.6501 99.7113 23.2289 100.772 23.2289C101.833 23.2289 102.85 23.6501 103.6 24.4V24.4ZM8 64C8 62.9391 8.42143 61.9217 9.17157 61.1716C9.92172 60.4214 10.9391 60 12 60H20C21.0609 60 22.0783 60.4214 22.8284 61.1716C23.5786 61.9217 24 62.9391 24 64C24 65.0609 23.5786 66.0783 22.8284 66.8284C22.0783 67.5786 21.0609 68 20 68H12C10.9391 68 9.92172 67.5786 9.17157 66.8284C8.42143 66.0783 8 65.0609 8 64V64ZM104 64C104 62.9391 104.421 61.9217 105.172 61.1716C105.922 60.4214 106.939 60 108 60H116C117.061 60 118.078 60.4214 118.828 61.1716C119.579 61.9217 120 62.9391 120 64C120 65.0609 119.579 66.0783 118.828 66.8284C118.078 67.5786 117.061 68 116 68H108C106.939 68 105.922 67.5786 105.172 66.8284C104.421 66.0783 104 65.0609 104 64ZM35.712 92.288C36.4619 93.0381 36.8831 94.0553 36.8831 95.116C36.8831 96.1767 36.4619 97.1939 35.712 97.944L30.056 103.6C29.687 103.982 29.2456 104.287 28.7576 104.496C28.2696 104.706 27.7447 104.816 27.2136 104.821C26.6825 104.826 26.1558 104.724 25.6642 104.523C25.1726 104.322 24.726 104.025 24.3504 103.65C23.9748 103.274 23.6778 102.827 23.4767 102.336C23.2756 101.844 23.1744 101.318 23.179 100.786C23.1836 100.255 23.294 99.7304 23.5036 99.2424C23.7132 98.7544 24.018 98.313 24.4 97.944L30.056 92.288C30.8061 91.5381 31.8233 91.1169 32.884 91.1169C33.9447 91.1169 34.9619 91.5381 35.712 92.288V92.288ZM92.288 92.288C93.0381 91.5381 94.0553 91.1169 95.116 91.1169C96.1767 91.1169 97.1939 91.5381 97.944 92.288L103.6 97.944C103.982 98.313 104.287 98.7544 104.496 99.2424C104.706 99.7304 104.816 100.255 104.821 100.786C104.826 101.318 104.724 101.844 104.523 102.336C104.322 102.827 104.025 103.274 103.65 103.65C103.274 104.025 102.827 104.322 102.336 104.523C101.844 104.724 101.318 104.826 100.786 104.821C100.255 104.816 99.7304 104.706 99.2424 104.496C98.7544 104.287 98.313 103.982 97.944 103.6L92.288 97.944C91.5381 97.1939 91.1169 96.1767 91.1169 95.116C91.1169 94.0553 91.5381 93.0381 92.288 92.288ZM64 104C65.0609 104 66.0783 104.421 66.8284 105.172C67.5786 105.922 68 106.939 68 108V116C68 117.061 67.5786 118.078 66.8284 118.828C66.0783 119.579 65.0609 120 64 120C62.9391 120 61.9217 119.579 61.1716 118.828C60.4214 118.078 60 117.061 60 116V108C60 106.939 60.4214 105.922 61.1716 105.172C61.9217 104.421 62.9391 104 64 104V104ZM64 32C55.5131 32 47.3737 35.3714 41.3726 41.3726C35.3714 47.3737 32 55.5131 32 64C32 72.4869 35.3714 80.6263 41.3726 86.6274C47.3737 92.6286 55.5131 96 64 96C72.4869 96 80.6263 92.6286 86.6274 86.6274C92.6286 80.6263 96 72.4869 96 64C96 55.5131 92.6286 47.3737 86.6274 41.3726C80.6263 35.3714 72.4869 32 64 32Z" fill="#FF8A00"/>
</svg>
